<?xml version="1.0" standalone="no"?>
<!DOCTYPE svg PUBLIC "-//W3C//DTD SVG 20010904//EN"
 "http://www.w3.org/TR/2001/REC-SVG-20010904/DTD/svg10.dtd">
<svg version="1.0" xmlns="http://www.w3.org/2000/svg"
 width="940.000000pt" height="788.000000pt" viewBox="0 0 940.000000 788.000000"
 preserveAspectRatio="xMidYMid meet">
<metadata>
Created by potrace 1.16, written by Peter Selinger 2001-2019
</metadata>
<g transform="translate(0.000000,788.000000) scale(0.100000,-0.100000)"
fill="#000000" stroke="none">
<path d="M4960 7135 c-20 -8 -55 -11 -81 -8 -30 4 -64 -1 -96 -11 -45 -15 -53
-15 -92 -1 -61 21 -176 19 -252 -4 -47 -15 -78 -18 -126 -14 -67 6 -119 -5
-182 -40 -21 -11 -65 -21 -110 -25 -91 -6 -129 -21 -184 -70 -29 -26 -60 -42
-97 -51 -30 -8 -66 -19 -80 -26 -30 -15 -90 -71 -90 -84 0 -5 -24 -17 -52 -27
-40 -15 -77 -42 -158 -118 -58 -54 -122 -124 -142 -155 -21 -30 -49 -66 -62
-78 -29 -26 -50 -69 -66 -133 -7 -25 -27 -68 -46 -97 -21 -32 -34 -64 -34 -85
0 -18 -11 -51 -24 -74 -30 -53 -36 -78 -46 -209 -5 -60 -14 -144 -19 -185 -21
-153 -23 -396 -6 -570 10 -91 19 -200 22 -244 l5 -79 -24 8 c-63 19 -138 17
-193 -5 -82 -33 -132 -106 -160 -235 -32 -144 -5 -407 65 -610 38 -112 235
-408 301 -452 20 -13 65 -32 100 -42 62 -17 64 -19 76 -62 6 -24 17 -71 23
-104 26 -139 112 -362 171 -447 11 -14 19 -29 19 -33 0 -3 12 -23 28 -43 105
-141 194 -237 300 -324 49 -40 39 -68 -23 -68 -13 0 -27 -4 -30 -10 -3 -5 -16
-10 -29 -10 -12 0 -26 -4 -32 -8 -5 -5 -27 -14 -49 -21 -47 -15 -70 -33 -108
-82 -33 -44 -42 -101 -29 -184 11 -67 1 -84 -51 -85 -15 0 -44 -7 -64 -15 -19
-8 -44 -15 -54 -15 -11 0 -27 -4 -37 -9 -9 -5 -30 -15 -47 -22 -49 -21 -147
-99 -188 -148 -42 -52 -96 -157 -110 -216 -5 -22 -11 -92 -14 -155 l-5 -115
42 -24 c64 -36 70 -28 70 95 0 175 46 294 153 394 48 46 135 90 176 90 16 0
32 4 35 9 3 5 20 11 38 15 108 19 104 19 124 -6 21 -26 107 -88 122 -88 6 0
12 -3 14 -7 4 -11 75 -43 93 -43 8 0 15 -4 15 -10 0 -5 11 -10 24 -10 14 0 28
-5 31 -10 3 -5 15 -10 26 -10 10 0 27 -4 37 -9 9 -5 40 -17 67 -26 53 -18 89
-32 117 -46 10 -5 27 -9 37 -9 11 0 23 -4 26 -10 3 -5 14 -10 23 -10 9 0 30
-7 46 -15 15 -8 35 -15 42 -15 8 0 22 -4 32 -9 32 -16 67 -30 117 -46 28 -8
59 -20 70 -26 45 -22 66 -162 70 -453 1 -125 6 -201 12 -203 33 -11 28 393 -7
592 -21 120 -23 138 -11 131 6 -4 11 -20 11 -36 0 -16 4 -31 9 -34 10 -7 14
-27 40 -211 21 -145 26 -305 12 -388 -6 -36 -4 -50 6 -59 23 -19 31 5 38 120
8 110 -8 363 -26 420 -20 61 -7 68 66 37 17 -7 40 -16 53 -20 22 -6 22 -5 10
14 -7 12 -16 21 -19 21 -4 0 -36 17 -70 39 l-64 38 -3 59 c-3 64 -18 88 -59
99 -36 9 -76 -10 -97 -45 -13 -23 -21 -28 -34 -21 -9 5 -42 17 -72 26 -30 10
-73 26 -94 36 -22 11 -48 19 -57 19 -10 0 -21 5 -24 10 -3 6 -16 10 -29 10
-12 0 -26 4 -32 9 -5 5 -47 21 -94 36 -47 15 -94 31 -105 35 -11 5 -36 14 -55
20 -92 33 -216 102 -243 136 -26 32 -28 38 -17 65 7 17 9 42 5 61 -4 18 -9 61
-12 94 l-5 62 46 31 c25 17 59 34 76 37 17 4 33 11 36 15 3 5 20 9 39 9 19 0
37 5 40 10 3 5 17 10 31 10 14 0 22 -4 19 -10 -3 -5 -15 -10 -27 -10 -21 0
-74 -33 -95 -58 -7 -9 -13 -28 -13 -43 0 -30 34 -79 56 -79 8 0 14 -3 14 -7 0
-5 10 -13 23 -19 151 -75 555 -288 627 -332 19 -12 42 -25 50 -29 78 -35 245
-172 281 -229 11 -19 28 -34 38 -34 9 0 40 27 70 60 51 59 127 121 184 149 15
8 27 18 27 23 0 4 4 8 10 8 5 0 33 15 62 33 71 43 87 51 394 207 269 136 364
199 364 240 0 35 -93 90 -151 90 -16 0 -38 5 -48 12 -10 6 -27 8 -37 4 -16 -6
-14 -9 14 -26 18 -11 41 -20 52 -20 10 0 22 -4 25 -10 3 -5 15 -10 26 -10 25
0 27 -48 2 -57 -10 -4 -20 -10 -23 -13 -5 -7 -91 -57 -148 -86 -25 -13 -38
-14 -55 -6 -12 6 -33 13 -47 15 -48 10 -145 39 -152 46 -4 3 22 22 58 41 36
19 88 49 116 67 27 18 53 33 57 33 3 0 21 16 40 35 35 37 47 40 95 26 17 -5
51 -15 76 -22 102 -27 193 -66 222 -94 26 -25 29 -35 26 -70 -3 -22 -13 -58
-23 -78 -13 -27 -16 -50 -11 -82 8 -64 -18 -88 -169 -155 -27 -12 -54 -23 -60
-25 -10 -2 -20 -6 -112 -46 -24 -11 -45 -19 -49 -19 -5 0 -117 -42 -159 -60
-60 -26 -186 -70 -200 -70 -8 0 -15 8 -15 18 0 34 -34 62 -74 62 -56 0 -107
-62 -85 -103 15 -26 -5 -52 -63 -81 -95 -47 -162 -87 -174 -104 -15 -20 -11
-27 8 -16 7 5 15 9 18 9 8 0 123 46 142 56 44 23 44 18 18 -196 -13 -111 -7
-402 9 -418 5 -5 16 -7 23 -5 10 4 12 31 6 129 -10 185 8 410 43 525 5 17 9
38 9 47 0 10 4 25 9 35 5 9 13 26 17 37 7 19 7 19 12 1 2 -10 -1 -28 -6 -40
-6 -11 -13 -39 -17 -61 -3 -22 -11 -69 -16 -105 -15 -92 -23 -560 -9 -560 5 0
13 -1 18 -2 4 -2 7 103 8 232 1 295 19 416 66 443 16 9 36 17 44 17 8 0 23 5
34 10 11 5 29 14 40 20 11 6 26 10 35 10 8 0 31 7 52 16 21 9 49 21 63 27 14
5 33 13 42 18 10 5 25 9 33 9 8 0 23 4 33 9 46 24 134 61 147 61 7 0 17 5 20
10 3 5 14 10 24 10 9 0 41 11 69 25 29 14 59 25 67 25 8 0 15 5 15 10 0 6 7
10 15 10 19 0 81 34 126 70 31 24 41 27 82 23 26 -3 50 -10 53 -14 3 -5 15 -9
27 -9 25 0 95 -23 141 -47 46 -24 149 -133 173 -184 36 -76 53 -165 53 -271
l0 -100 30 6 c17 3 42 14 56 23 23 17 24 21 21 118 -3 55 -7 114 -11 130 -15
64 -31 111 -48 140 -10 17 -22 40 -28 53 -13 31 -138 154 -175 172 -17 8 -32
17 -35 20 -13 13 -107 47 -150 54 -8 1 -38 8 -66 16 l-52 13 5 41 c3 23 9 45
14 51 12 12 12 80 0 103 -5 9 -17 33 -26 52 -16 33 -83 90 -105 90 -6 0 -18 4
-28 9 -9 5 -28 13 -42 19 -22 9 -42 14 -127 37 -13 4 -23 12 -23 18 0 7 44 53
98 102 95 87 186 191 250 286 89 132 162 309 202 489 34 151 28 141 97 160 68
19 125 54 160 98 181 231 238 337 290 539 32 127 35 151 36 298 2 127 -2 171
-15 213 -47 145 -149 222 -276 209 l-54 -6 6 42 c22 171 28 283 29 577 2 362
-4 443 -52 680 -6 30 -14 81 -17 112 -4 48 -13 68 -48 115 -24 32 -47 69 -51
83 -14 51 -36 89 -67 117 -42 37 -85 83 -127 133 -19 22 -55 50 -80 62 -25 11
-61 38 -79 59 -18 21 -58 50 -89 65 -32 15 -79 49 -105 76 -54 56 -106 82
-198 98 -36 6 -75 13 -87 16 -13 2 -37 17 -55 32 -69 58 -169 92 -272 92 -37
0 -76 5 -87 11 -18 9 -127 41 -132 38 -1 -1 -18 -7 -37 -14z m-1040 -1095 c0
-6 36 -10 89 -10 50 0 93 -4 96 -10 3 -5 17 -10 31 -10 13 0 24 -4 24 -10 0
-5 20 -10 44 -10 25 0 48 5 51 10 3 6 19 10 35 10 16 0 32 -4 35 -10 3 -5 15
-10 25 -10 10 0 20 -5 22 -12 3 -8 39 -12 114 -13 60 0 115 -4 121 -8 37 -23
200 -44 216 -28 6 6 23 11 37 11 14 0 35 7 46 15 22 17 65 19 115 5 28 -8 50
-6 95 7 33 9 109 19 169 22 61 3 117 10 125 16 8 5 66 8 133 6 70 -1 123 1
130 7 13 11 87 -6 87 -20 0 -5 5 -8 12 -8 6 0 25 -10 42 -23 17 -12 42 -27 56
-33 72 -32 86 -43 122 -101 22 -35 50 -71 62 -81 20 -15 24 -31 30 -107 6 -83
29 -155 48 -155 5 0 8 -31 8 -70 0 -38 4 -79 9 -92 25 -63 41 -136 41 -184 0
-29 5 -56 10 -59 6 -3 10 -34 10 -67 0 -34 4 -75 9 -92 6 -17 16 -53 24 -81 9
-27 18 -58 23 -68 6 -17 2 -18 -52 -13 -119 11 -140 16 -157 44 -9 15 -27 39
-40 53 -36 40 -149 129 -164 129 -7 0 -13 4 -13 8 0 4 -17 14 -37 21 -21 7
-47 16 -58 20 -65 26 -126 35 -275 38 -106 3 -181 0 -210 -8 -25 -6 -63 -14
-85 -16 -22 -3 -44 -9 -49 -14 -6 -5 -19 -9 -29 -9 -46 0 -107 -71 -107 -124
0 -34 26 -39 115 -26 39 6 98 14 131 19 34 4 67 11 73 15 39 25 335 38 406 18
52 -14 113 -36 121 -45 4 -4 16 -7 26 -7 10 0 18 -4 18 -10 0 -5 8 -10 18 -10
9 0 31 -12 47 -26 17 -14 37 -30 45 -34 25 -14 2 -24 -26 -11 -40 18 -477 26
-589 11 -49 -7 -133 -15 -185 -17 -52 -2 -99 -9 -104 -14 -6 -5 -29 -9 -52 -9
-24 0 -46 -4 -49 -10 -3 -5 -15 -10 -25 -10 -10 0 -40 -20 -66 -44 -41 -39
-55 -45 -106 -51 -73 -9 -197 3 -223 21 -11 8 -16 14 -11 14 4 0 -5 11 -21 24
-36 30 -97 56 -134 56 -15 0 -31 5 -34 10 -3 6 -32 10 -63 10 -31 0 -73 4 -92
10 -60 17 -188 23 -487 23 -225 0 -290 3 -287 12 6 15 186 105 211 105 11 0
24 5 30 11 7 7 65 9 174 6 170 -5 274 -17 322 -36 16 -6 43 -11 62 -11 19 0
37 -4 40 -10 3 -5 38 -10 76 -10 63 0 70 2 78 22 11 31 -34 104 -74 119 -16 6
-39 15 -50 19 -138 54 -510 70 -610 25 -16 -8 -52 -23 -80 -35 -73 -32 -165
-101 -227 -169 -59 -66 -94 -80 -196 -81 l-54 0 7 33 c4 17 11 36 16 42 5 5 9
21 9 35 0 14 4 30 10 36 5 5 10 27 11 49 2 42 24 159 40 211 5 17 9 44 9 60 0
17 4 34 8 40 10 10 30 99 36 159 2 22 13 67 25 100 11 33 21 72 21 88 0 33 22
107 32 107 10 0 34 55 51 115 12 42 20 53 59 75 24 14 60 37 79 51 58 44 74
49 181 50 57 0 112 4 123 9 28 12 65 12 65 0z m-1019 -1411 c27 -19 29 -25 29
-85 0 -35 -2 -64 -5 -64 -2 0 -24 21 -47 46 -34 36 -107 83 -112 72 -1 -2 -8
-11 -15 -21 -12 -15 -11 -21 8 -41 l22 -23 -23 -44 c-18 -35 -23 -62 -24 -139
-3 -101 21 -243 50 -301 9 -18 16 -38 16 -45 0 -7 14 -40 30 -72 17 -33 30
-66 30 -73 0 -16 44 -85 69 -110 18 -17 66 -44 94 -53 13 -4 17 -16 17 -55 0
-27 5 -53 10 -56 6 -3 10 -15 10 -27 0 -15 -4 -18 -17 -13 -10 4 -25 9 -33 12
-9 2 -40 38 -70 80 -30 41 -59 80 -65 86 -27 32 -64 87 -85 127 -12 25 -29 57
-36 72 -8 14 -14 33 -14 42 0 9 -4 16 -9 16 -5 0 -11 19 -14 43 -10 72 -24
141 -34 167 -16 39 -11 327 7 378 8 23 18 42 22 42 5 0 8 6 8 13 0 11 26 33
60 49 24 12 90 -1 121 -23z m537 -51 c-30 -29 -61 -68 -69 -85 -8 -18 -17 -33
-21 -33 -5 0 -8 -18 -8 -41 0 -37 29 -98 52 -107 4 -2 8 -8 8 -14 0 -14 91
-98 106 -98 7 0 14 -3 16 -7 4 -11 78 -65 78 -58 0 3 10 0 23 -7 34 -19 90
-38 112 -38 12 0 26 -5 32 -11 6 -6 54 -9 134 -6 133 5 196 14 205 28 3 5 16
9 30 9 13 0 24 4 24 9 0 5 9 12 20 16 10 3 54 29 96 56 42 28 78 48 80 46 2
-2 -4 -28 -13 -58 -24 -75 -83 -127 -165 -144 -18 -4 -37 -11 -43 -15 -26 -21
-510 -39 -528 -21 -6 6 -30 11 -52 11 -43 0 -128 21 -180 45 -48 22 -91 67
-104 108 -6 20 -15 52 -21 70 -5 18 -10 95 -10 170 l0 136 38 32 c48 40 93 56
161 58 l54 1 -55 -52z m480 33 c28 -24 28 -70 1 -105 -24 -30 -38 -32 -79 -11
-44 23 -54 48 -35 90 23 47 75 59 113 26z m2047 9 c3 -5 28 -10 56 -10 27 0
49 -4 49 -10 0 -5 8 -10 18 -10 22 0 59 -30 84 -68 14 -22 18 -49 18 -139 0
-61 -4 -114 -9 -118 -6 -3 -13 -27 -16 -53 -4 -26 -13 -61 -21 -79 -16 -35
-80 -93 -104 -93 -8 0 -24 -7 -34 -15 -11 -8 -32 -15 -46 -15 -14 0 -31 -5
-37 -11 -14 -14 -559 -15 -576 -1 -7 5 -32 13 -57 17 -24 4 -51 11 -60 15 -8
5 -31 15 -50 23 -35 16 -75 54 -97 94 -12 22 -18 73 -8 73 2 0 42 -25 89 -55
46 -30 90 -55 98 -55 8 0 18 -4 24 -8 5 -5 27 -14 49 -20 269 -75 555 24 714
250 24 34 31 52 26 68 -4 12 -8 28 -9 34 -3 24 -68 107 -118 150 l-53 46 32 0
c18 0 35 -4 38 -10z m709 -25 c20 -19 36 -41 36 -50 0 -8 4 -15 9 -15 29 0 30
-390 1 -425 -5 -5 -11 -28 -15 -50 -3 -22 -10 -49 -15 -60 -4 -11 -14 -40 -21
-65 -13 -46 -47 -114 -80 -162 -11 -14 -19 -29 -19 -33 0 -3 -14 -20 -30 -38
-17 -18 -33 -40 -36 -49 -3 -10 -8 -18 -12 -18 -4 0 -18 -18 -32 -40 -24 -39
-87 -90 -111 -90 -7 0 -9 9 -5 23 4 12 9 38 12 57 11 76 14 80 39 80 46 0 165
144 165 201 0 10 3 19 8 19 4 0 20 35 36 78 15 42 32 86 36 97 4 11 13 45 21
75 16 67 18 298 3 308 -6 4 -16 17 -23 30 -11 20 -9 25 11 42 19 15 21 22 12
37 -18 28 -60 18 -114 -27 -28 -23 -50 -39 -51 -36 0 3 -1 24 -1 46 0 71 2 75
25 86 12 7 43 12 69 13 40 1 51 -4 82 -34z m-2920 16 c6 -10 -23 -74 -36 -79
-5 -2 -8 -33 -8 -68 0 -77 22 -128 74 -171 40 -32 116 -58 149 -50 72 18 86
24 114 48 56 48 83 102 83 169 0 33 -4 60 -9 60 -5 0 -11 8 -14 18 -2 9 -8 25
-12 35 -9 22 20 23 63 2 78 -39 182 -170 182 -229 0 -18 -92 -99 -148 -131
-21 -12 -72 -35 -113 -51 -68 -26 -85 -28 -204 -28 -123 0 -133 1 -190 28 -33
16 -80 45 -105 64 -53 42 -140 144 -140 164 0 23 54 101 94 136 39 34 54 42
141 73 58 21 72 22 79 10z m1761 -13 c30 -13 34 -60 9 -96 -32 -46 -136 -17
-129 36 2 15 4 35 4 44 1 27 71 37 116 16z m297 -40 c87 -45 166 -144 154
-194 -10 -38 -135 -156 -201 -190 -91 -46 -140 -57 -246 -51 -125 7 -165 17
-263 66 -77 39 -186 128 -186 153 0 28 53 117 92 155 60 58 178 115 178 86 0
-13 -26 -82 -33 -89 -11 -11 -8 -71 6 -116 25 -84 104 -138 201 -138 72 0 123
25 170 83 29 36 31 44 31 120 0 62 -5 89 -19 109 -38 57 10 59 116 6z m-989
-220 c39 -28 47 -48 48 -130 0 -40 4 -95 9 -123 4 -27 11 -68 15 -90 4 -22 10
-49 15 -60 4 -11 11 -28 14 -38 8 -24 36 -33 47 -16 6 8 8 31 5 52 -5 42 1 45
37 17 14 -11 30 -20 36 -20 6 0 11 -4 11 -9 0 -5 12 -11 28 -14 15 -3 54 -13
87 -22 113 -31 201 -38 475 -39 303 -1 349 3 462 41 97 33 153 82 182 163 7
19 0 -95 -12 -186 -5 -39 -12 -75 -15 -81 -3 -5 -11 -38 -17 -74 -7 -35 -16
-86 -22 -114 -5 -27 -12 -70 -15 -95 -3 -25 -10 -51 -16 -58 -5 -7 -10 -27 -9
-44 0 -17 -6 -47 -14 -66 -8 -19 -14 -49 -14 -68 0 -18 -4 -36 -10 -39 -5 -3
-10 -21 -10 -40 0 -19 -4 -37 -10 -40 -5 -3 -10 -15 -10 -27 0 -11 -6 -32 -14
-46 -8 -15 -26 -57 -41 -94 -26 -64 -89 -172 -149 -253 -37 -49 -181 -194
-260 -260 -63 -53 -190 -145 -200 -145 -3 0 -17 -10 -31 -22 -31 -28 -120 -79
-195 -114 -30 -14 -63 -30 -72 -35 -10 -5 -27 -9 -37 -9 -11 0 -23 -4 -26 -10
-3 -5 -15 -10 -27 -10 -11 0 -34 -6 -51 -14 -18 -8 -54 -18 -82 -22 -66 -10
-419 -11 -470 -1 -62 12 -149 39 -160 48 -5 5 -17 9 -27 9 -10 0 -26 4 -36 9
-9 4 -42 20 -72 35 -76 37 -139 72 -158 89 -9 8 -33 23 -52 33 -19 10 -40 24
-46 29 -6 6 -24 20 -40 32 -16 13 -63 50 -106 83 -92 72 -250 230 -287 285
-14 22 -33 48 -41 58 -39 46 -111 189 -150 297 -6 19 -16 44 -20 55 -9 22 -18
66 -26 130 -3 22 -9 49 -14 60 -5 11 -11 38 -14 60 -10 78 -28 170 -37 187 -5
10 -9 37 -9 61 0 24 -4 47 -9 53 -9 9 -11 25 -30 194 -5 47 -14 103 -20 125
-15 58 -14 70 4 55 8 -7 15 -18 15 -24 0 -35 117 -136 158 -136 10 0 22 -3 26
-7 25 -25 279 -56 466 -57 146 0 353 17 393 33 16 6 43 11 62 11 19 0 37 5 40
10 3 6 16 10 29 10 63 0 176 101 176 157 0 10 4 23 8 28 5 6 17 42 26 80 31
122 44 147 96 172 56 27 168 23 213 -9z m-894 -2163 c26 -19 53 -35 60 -35 6
0 11 -3 11 -7 0 -5 10 -13 23 -19 12 -6 43 -22 68 -36 l47 -24 -27 -11 c-14
-6 -42 -14 -61 -18 -19 -4 -40 -11 -46 -16 -17 -14 -112 -13 -128 1 -9 6 -46
28 -83 47 -78 40 -112 68 -98 82 22 21 87 51 110 51 13 0 27 5 30 10 12 19 45
10 94 -25z m1152 -242 c13 -6 39 -17 57 -25 36 -15 46 -34 36 -72 -6 -25 -51
-56 -81 -56 -7 0 -13 -4 -13 -8 0 -5 -18 -17 -40 -28 -22 -10 -40 -22 -40 -26
0 -5 -5 -8 -11 -8 -14 0 -163 -108 -206 -149 -27 -26 -40 -31 -82 -31 -48 0
-53 3 -109 58 -75 73 -100 93 -137 112 -17 8 -32 17 -35 20 -7 7 -45 28 -112
63 -74 38 -81 47 -73 97 6 33 11 40 30 40 13 0 27 5 30 10 3 6 15 10 25 10 10
0 23 7 28 16 8 14 17 14 83 3 101 -17 454 -23 490 -8 16 6 43 11 62 11 19 0
40 4 48 9 9 5 16 3 20 -9 4 -10 17 -23 30 -29z"/>
<path d="M4317 3612 c-31 -48 -50 -113 -37 -126 6 -6 10 -22 10 -37 0 -33 42
-79 72 -79 36 0 204 -57 252 -85 51 -30 108 -32 151 -7 17 10 57 26 90 37 33
11 65 22 70 26 6 4 37 12 70 19 94 18 115 43 118 138 1 46 -4 65 -21 89 -12
17 -22 36 -22 42 0 6 -7 11 -16 11 -14 0 -15 -7 -9 -47 14 -95 12 -122 -7
-140 -16 -14 -25 -15 -72 -4 -66 15 -115 7 -148 -23 -39 -37 -63 -46 -125 -46
-51 0 -63 4 -100 34 -70 55 -94 61 -158 41 -31 -9 -62 -15 -70 -12 -21 9 -29
71 -15 120 25 89 10 113 -33 49z"/>
<path d="M3978 3063 c-29 -18 -44 -59 -33 -92 7 -23 38 -35 80 -32 17 1 68 -8
115 -19 117 -29 191 -41 290 -47 47 -2 89 -9 94 -14 14 -12 343 -12 351 1 3 6
46 10 95 10 49 0 92 5 95 10 3 6 23 10 44 10 21 0 74 9 117 19 44 11 105 22
137 24 65 5 63 4 75 37 10 28 -9 75 -38 90 -31 16 -69 11 -92 -12 -24 -24 -92
-47 -141 -48 -16 0 -37 -5 -48 -11 -40 -21 -188 -33 -414 -32 -231 0 -320 7
-450 38 -38 9 -86 19 -105 22 -19 3 -52 18 -72 34 -42 33 -62 35 -100 12z"/>
<path d="M4426 2724 c-7 -19 8 -32 67 -54 74 -28 303 -34 380 -10 56 17 87 44
69 62 -16 16 -510 18 -516 2z"/>
</g>
</svg>
