<svg xmlns="http://www.w3.org/2000/svg" width="512" height="413.92" viewBox="0 0 512 413.92">
  <g id="laptop-screen" transform="translate(-2.5 -9.208)">
    <path id="Trazado_60" data-name="Trazado 60" d="M430.475,48.541V304.095H276.713l-7.107,23.616H169.369l-7.107-23.616H8.5V48.541A35.86,35.86,0,0,1,44.331,12.71H394.644A35.86,35.86,0,0,1,430.475,48.541Z" transform="translate(38.418 22.424)" fill="#bbbbcd"/>
    <path id="Trazado_61" data-name="Trazado 61" d="M427.978,48.541V304.095h-20.21V67.937a35.9,35.9,0,0,0-35.831-35.831H21.623A34.75,34.75,0,0,0,8.89,34.475,35.875,35.875,0,0,1,41.834,12.71H392.147a35.86,35.86,0,0,1,35.831,35.831Z" transform="translate(40.916 22.424)" fill="#9297ab"/>
    <path id="Trazado_62" data-name="Trazado 62" d="M13.753,17.684H357.959V237.422H13.753Z" transform="translate(72.054 54.272)" fill="#89c5cd"/>
    <path id="Trazado_63" data-name="Trazado 63" d="M57.75,17.68H76.258v219.8H57.75Z" transform="translate(353.769 54.247)" fill="#6eaaad"/>
    <path id="Trazado_64" data-name="Trazado 64" d="M506.409,65.4c0,31.685-40.2,57.374-71.884,57.374H74.884C43.2,122.769,3,97.081,3,65.4A13.325,13.325,0,0,1,16.326,52.07H197.479l7.107,23.616H304.823L311.93,52.07H493.083A13.326,13.326,0,0,1,506.409,65.4Z" transform="translate(3.202 274.448)" fill="#9297ab"/>
    <path id="Trazado_65" data-name="Trazado 65" d="M437.726,129.672H78.085C43.846,129.672,2.5,102.429,2.5,68.6A17.027,17.027,0,0,1,19.527,51.57H200.68a3.7,3.7,0,0,1,3.546,2.635l6.3,20.98h94.759l6.315-20.98a3.7,3.7,0,0,1,3.546-2.635H496.284A17.027,17.027,0,0,1,513.312,68.6C513.312,102.429,471.965,129.672,437.726,129.672Zm-418.2-70.7A9.624,9.624,0,0,0,9.9,68.6c0,28.872,37.489,53.672,68.182,53.672H437.726c30.693,0,68.182-24.771,68.182-53.672a9.624,9.624,0,0,0-9.624-9.624H317.871l-6.3,20.951a3.7,3.7,0,0,1-3.546,2.635H207.787a3.7,3.7,0,0,1-3.546-2.635l-6.3-20.951Z" transform="translate(0 271.247)"/>
    <path id="Trazado_66" data-name="Trazado 66" d="M202.812,27.51V134.928a12.356,12.356,0,0,1-12.289,12.289H37.279A12.356,12.356,0,0,1,24.99,134.928V27.51Z" transform="translate(144.005 117.189)" fill="#fff"/>
    <path id="Trazado_67" data-name="Trazado 67" d="M70.332,27.51V134.928a12.356,12.356,0,0,1-12.289,12.289H45.68a12.356,12.356,0,0,0,12.289-12.289V27.51Z" transform="translate(276.484 117.189)" fill="#eeefee"/>
    <path id="Trazado_68" data-name="Trazado 68" d="M202.812,33.669V66.761H24.99V33.669A12.3,12.3,0,0,1,37.279,21.38H190.523A12.3,12.3,0,0,1,202.812,33.669Z" transform="translate(144.005 77.938)" fill="#fcd462"/>
    <path id="Trazado_69" data-name="Trazado 69" d="M202.748,33.669V66.761H190.533V45.218a12.3,12.3,0,0,0-12.289-12.289H25A12.252,12.252,0,0,1,37.215,21.38H190.459A12.3,12.3,0,0,1,202.748,33.669Z" transform="translate(144.069 77.938)" fill="#f7be56"/>
    <g id="Grupo_6" data-name="Grupo 6" transform="translate(22.863 9.208)">
      <path id="Trazado_70" data-name="Trazado 70" d="M101.45,31.41H30.884a3.7,3.7,0,1,1,0-7.4H101.45a3.7,3.7,0,1,1,0,7.4Z" transform="translate(135.177 85.551)"/>
      <path id="Trazado_71" data-name="Trazado 71" d="M46.576,31.41H43.223a3.7,3.7,0,1,1,0-7.4h3.354a3.7,3.7,0,1,1,0,7.4Z" transform="translate(214.185 85.551)"/>
      <path id="Trazado_72" data-name="Trazado 72" d="M49.219,31.41H45.873a3.7,3.7,0,1,1,0-7.4h3.346a3.7,3.7,0,1,1,0,7.4Z" transform="translate(231.153 85.551)"/>
      <path id="Trazado_73" data-name="Trazado 73" d="M51.868,31.41H48.522a3.7,3.7,0,1,1,0-7.4h3.346a3.7,3.7,0,1,1,0,7.4Z" transform="translate(248.115 85.551)"/>
      <path id="Trazado_74" data-name="Trazado 74" d="M47.9,102.586A12.274,12.274,0,0,1,35.642,90.327V76.705a4.879,4.879,0,0,0-2.073-3.983,7.684,7.684,0,0,1,0-12.585,4.879,4.879,0,0,0,2.073-3.983V42.532A12.274,12.274,0,0,1,47.9,30.273a3.7,3.7,0,0,1,0,7.4,4.856,4.856,0,0,0-4.856,4.856V56.154A12.282,12.282,0,0,1,37.8,66.208,13.814,13.814,0,0,1,43.046,76.72V90.341A4.856,4.856,0,0,0,47.9,95.2a3.7,3.7,0,1,1,0,7.4Z" transform="translate(155.115 125.673)"/>
      <path id="Trazado_75" data-name="Trazado 75" d="M44.528,102.6a3.7,3.7,0,1,1,0-7.4,4.856,4.856,0,0,0,4.856-4.856V76.718a12.282,12.282,0,0,1,5.241-10.053,13.814,13.814,0,0,1-5.241-10.512V42.53a4.856,4.856,0,0,0-4.856-4.856,3.7,3.7,0,1,1,0-7.4A12.274,12.274,0,0,1,56.787,42.53V56.152a4.878,4.878,0,0,0,2.073,3.983,7.684,7.684,0,0,1,0,12.585A4.879,4.879,0,0,0,56.787,76.7V90.325A12.274,12.274,0,0,1,44.528,102.6Z" transform="translate(222.541 125.66)"/>
      <path id="Trazado_76" data-name="Trazado 76" d="M37.472,120.061a3.649,3.649,0,0,1-1.6-.363,3.7,3.7,0,0,1-1.732-4.938L74.487,30.95a3.7,3.7,0,0,1,6.663,3.206L40.8,117.966a3.7,3.7,0,0,1-3.331,2.1Z" transform="translate(177.39 117.637)"/>
      <path id="Trazado_77" data-name="Trazado 77" d="M8.955,59.127a3.553,3.553,0,0,1-.918-.118,3.7,3.7,0,0,1-2.673-4.494,62.186,62.186,0,0,1,46.262-45,3.7,3.7,0,1,1,1.629,7.218,54.783,54.783,0,0,0-40.717,39.6,3.7,3.7,0,0,1-3.583,2.791Z" transform="translate(-5.251 -7.972)"/>
      <path id="Trazado_78" data-name="Trazado 78" d="M22.9,16.611H17.035a3.7,3.7,0,0,1,0-7.4H22.9a3.7,3.7,0,1,1,0,7.4Z" transform="translate(46.501 -9.208)"/>
      <path id="Trazado_79" data-name="Trazado 79" d="M66.225,98.29a3.709,3.709,0,0,1-.474-7.4,104.028,104.028,0,0,0,59.61-29.938,3.7,3.7,0,1,1,5.338,5.13A111.69,111.69,0,0,1,66.714,98.253,3.606,3.606,0,0,1,66.225,98.29Z" transform="translate(359.906 314.816)"/>
      <path id="Trazado_80" data-name="Trazado 80" d="M69.005,71.523H62.765a3.7,3.7,0,0,1,0-7.4h6.241a3.7,3.7,0,0,1,0,7.4Z" transform="translate(339.314 342.397)"/>
      <path id="Trazado_81" data-name="Trazado 81" d="M272.808,334.614H172.57a3.7,3.7,0,0,1-3.546-2.635l-6.3-20.98H11.7A3.7,3.7,0,0,1,8,307.3V51.742A39.577,39.577,0,0,1,47.532,12.21H397.845a39.577,39.577,0,0,1,39.532,39.532V307.3a3.7,3.7,0,0,1-3.7,3.7H282.654l-6.3,20.951a3.7,3.7,0,0,1-3.546,2.665Zm-97.484-7.4h94.744l6.315-20.98a3.7,3.7,0,0,1,3.546-2.635H429.975V51.742a32.166,32.166,0,0,0-32.129-32.129H47.532A32.166,32.166,0,0,0,15.4,51.742V303.595h150.06a3.7,3.7,0,0,1,3.546,2.635Z" transform="translate(12.354 10.014)"/>
      <path id="Trazado_82" data-name="Trazado 82" d="M272.808,334.614H172.57a3.7,3.7,0,0,1-3.546-2.635l-6.3-20.98H11.7A3.7,3.7,0,0,1,8,307.3V51.742A39.577,39.577,0,0,1,47.532,12.21H397.845a39.577,39.577,0,0,1,39.532,39.532V307.3a3.7,3.7,0,0,1-3.7,3.7H282.654l-6.3,20.951a3.7,3.7,0,0,1-3.546,2.665Zm-97.484-7.4h94.744l6.315-20.98a3.7,3.7,0,0,1,3.546-2.635H429.975V51.742a32.166,32.166,0,0,0-32.129-32.129H47.532A32.166,32.166,0,0,0,15.4,51.742V303.595h150.06a3.7,3.7,0,0,1,3.546,2.635Z" transform="translate(12.354 10.014)"/>
      <path id="Trazado_83" data-name="Trazado 83" d="M361.192,244.332H16.95a3.7,3.7,0,0,1-3.7-3.7V20.886a3.7,3.7,0,0,1,3.7-3.7H361.192a3.7,3.7,0,0,1,3.7,3.7V240.631A3.7,3.7,0,0,1,361.192,244.332Zm-340.541-7.4h336.84V24.587H20.651Z" transform="translate(45.957 41.863)"/>
      <path id="Trazado_84" data-name="Trazado 84" d="M206.013,73.664H28.192a3.7,3.7,0,0,1-3.7-3.7V36.871A16.005,16.005,0,0,1,40.481,20.88H193.724a16.005,16.005,0,0,1,15.991,15.991V69.962A3.7,3.7,0,0,1,206.013,73.664Zm-174.12-7.4H202.312V36.871a8.6,8.6,0,0,0-8.588-8.588H40.481a8.6,8.6,0,0,0-8.588,8.588Z" transform="translate(117.94 65.529)"/>
      <path id="Trazado_85" data-name="Trazado 85" d="M193.724,154.121H40.481A16.005,16.005,0,0,1,24.49,138.13V30.712a3.7,3.7,0,0,1,3.7-3.7H206.013a3.7,3.7,0,0,1,3.7,3.7V138.13a16.005,16.005,0,0,1-15.991,15.991ZM31.893,34.413V138.13a8.7,8.7,0,0,0,8.588,8.588H193.724a8.7,8.7,0,0,0,8.588-8.588V34.413Z" transform="translate(117.94 104.779)"/>
    </g>
    <path id="Trazado_86" data-name="Trazado 86" d="M27.607,44.162V46.25a5.737,5.737,0,1,1-11.475,0V44.162a5.737,5.737,0,0,1,11.475,0Z" transform="translate(87.287 187.078)" fill="#fff"/>
    <path id="Trazado_87" data-name="Trazado 87" d="M27.607,32.862V98.424a5.737,5.737,0,1,1-11.475,0V32.862a5.737,5.737,0,0,1,11.475,0Z" transform="translate(87.287 114.724)" fill="#fff"/>
  </g>
</svg>
